<svg xmlns="http://www.w3.org/2000/svg" width="29" height="23" viewBox="0 0 29 23">
    <path fill="#FFF" fill-rule="evenodd" d="M27.827 6.134l-4.743-4.478a5.956 5.956 0 0 0-4.11-1.617h-.405c-.02-.013-.041-.025-.06-.039-1.288 2.278-4.196 3.233-6.657 2.109A4.981 4.981 0 0 1 9.561.003c-.018.014-.04.023-.055.036H9.1a5.956 5.956 0 0 0-4.11 1.617L.247 6.134a.774.774 0 0 0-.032 1.102l3.1 3.283a.846.846 0 0 0 1.112.092l1.925-1.436.195 12.523a.81.81 0 0 0 .822.781h13.335c.45 0 .816-.348.821-.781l.196-12.523 1.925 1.436a.846.846 0 0 0 1.111-.092l3.104-3.283a.776.776 0 0 0-.034-1.102"/>
</svg>
