<svg xmlns="http://www.w3.org/2000/svg" width="14" height="16" viewBox="0 0 14 16">
  <g fill="none">
    <path fill="#07A22B" d="M0,9 C0,12.866 3.134,16 7,16 C10.866,16 14,12.866 14,9 C14,5.134 10.866,2 7,2 C3.134,2 0,5.134 0,9 Z M7,3 C10.314,3 13,5.686 13,9 C13,12.314 10.314,15 7,15 C3.686,15 1,12.314 1,9 C1,5.686 3.686,3 7,3 Z"/>
    <rect width="4" height="1" x="5" fill="#00D031"/>
    <rect width="1" height="2" x="12.5" y="1.5" fill="#00D031" transform="rotate(-45 13 2.5)"/>
    <path fill="#00D031" d="M7,4 L7,9 L12,9 C12,6.239 9.761,4 7,4 Z"/>
  </g>
</svg>
