<svg xmlns="http://www.w3.org/2000/svg" xmlns:xlink="http://www.w3.org/1999/xlink" width="16" height="16" viewBox="0 0 16 16">
    <defs>
        <path id="a" d="M0 0h16v16H0z"/>
        <linearGradient id="d" x1="0%" x2="50%" y1="-77.709%" y2="50%">
            <stop offset="0%" stop-color="#F4F4F4"/>
            <stop offset="100%" stop-color="#D4D4D4"/>
        </linearGradient>
        <path id="c" d="M0 2v6.6h1.829V2.76a1 1 0 0 1 1-1h10.19a1 1 0 0 1 1 1V8.6h1.829V2a2 2 0 0 0-2-2H2a2 2 0 0 0-2 2z"/>
        <radialGradient id="e" cx="66.301%" cy="34.299%" r="69.61%" fx="66.301%" fy="34.299%">
            <stop offset="0%" stop-color="#FFF"/>
            <stop offset="59.96%" stop-color="#E5E4E5"/>
            <stop offset="88.57%" stop-color="#A7B0B2"/>
            <stop offset="100%" stop-color="#FFF"/>
        </radialGradient>
        <radialGradient id="f" cx="50.264%" cy="49.724%" r="49.847%" fx="50.264%" fy="49.724%">
            <stop offset="0%" stop-color="#666"/>
            <stop offset="100%"/>
        </radialGradient>
    </defs>
    <g fill="none" fill-rule="evenodd">
        <mask id="b" fill="#fff">
            <use xlink:href="#a"/>
        </mask>
        <g mask="url(#b)">
            <use fill="#D4D4D4" xlink:href="#c"/>
            <use fill="url(#d)" xlink:href="#c"/>
        </g>
        <g mask="url(#b)">
            <g transform="translate(3 6)">
                <circle cx="5" cy="5" r="5" fill="url(#e)"/>
                <path fill="url(#f)" fill-rule="nonzero" d="M10 5.125c0-1.25-.438-2.375-1.063-3.188l-.187.813c-.875-.625-1.813-.688-1.813-.688h-.062L5.312.563s.25-.375.563-.375H6l.688.063C6.5.187 6.25.125 6 .062 5.75 0 5.312 0 5.312 0l.313.125C5.312.25 5.187.5 5.125.5l-.063.063-2.125.812h-.062s-.563-.125-1.188.125l.125-.25C1.25 1.75.625 2.438.375 3.188l1.063-1.376.125-.062c.562-.313 1.187-.188 1.187-.188l.063 2.125H2.75s-.875.75-1.375 1.938L0 5.062v.375c.063 1.375.813 2.5 1.688 3.375l.625-.562c.062 0 .874.438 2.25.563h.062L5.688 10s.437 0 1.125-.313a5.047 5.047 0 0 0 1.25-.75l.312-1.75.063-.062c.75-.5 1.062-1.625 1.062-1.75l.375.063c.125-.125.125-.25.125-.313zM4.687 8.563c-1.437-.063-2.187-.5-2.25-.5L2.376 8l-.813-2.25.063-.063c.5-1.125 1.313-1.875 1.313-1.875H3l2.375.5.063.063s.562 1.063.75 2.25v.063l-1.5 1.875zm3.75-1.626l-2.062-.25c-.188-1.25-.75-2.375-.813-2.375l1.313-2h.063c.062 0 .875.063 1.75.688l.062.063.688 2.062v.188c0-.063-.25 1.125-1 1.625z"/>
            </g>
        </g>
    </g>
</svg>
