<svg xmlns="http://www.w3.org/2000/svg" width="29" height="24" viewBox="0 0 29 24">
    <path fill="#262626" fill-rule="evenodd" d="M23.388 1.873C22.27.694 20.791.045 19.224.045h-.41c-.02-.016-.042-.03-.062-.045-1.304 2.577-4.25 3.657-6.744 2.385-1.033-.525-1.815-1.377-2.321-2.381-.018.015-.04.025-.056.04h-.41c-1.568 0-3.047.65-4.165 1.83L.25 6.938a.949.949 0 0 0-.032 1.247l3.141 3.713a.792.792 0 0 0 1.126.105l1.95-1.625.199 12.247c.007.49.378.884.832.884h13.51c.456 0 .827-.393.833-.884l.198-12.247 1.95 1.625a.792.792 0 0 0 1.126-.105l3.145-3.713a.95.95 0 0 0-.034-1.247l-4.806-5.066z"/>
</svg>
