<svg xmlns="http://www.w3.org/2000/svg" width="16" height="16" viewBox="0 0 16 16">
    <path fill="#FFF" fill-rule="evenodd" d="M7.987 1.014c-.494 0-.99.054-1.475.159l-.49.108.445.23a10.988 10.988 0 0 1 2.239 1.537l.119.106.12-.104c.285-.247.46-.469.572-.72a1.1 1.1 0 0 0-.176-1.145l-.042-.048-.062-.011a7.154 7.154 0 0 0-1.25-.112zm2.63.795c.036.694-.266 1.315-.951 1.955l-.126.117.394.47 2.924-1.378-.203-.182a6.967 6.967 0 0 0-1.782-1.156l-.27-.123.015.297zm-5.991.079c-1.555.888-2.634 2.161-3.208 3.785l-.184.522.48-.327c.769-.516 1.66-.875 2.808-1.133.229-.052.462-.099.687-.145l.028-.006c.74-.15 1.437-.292 2.109-.569.104-.043.213-.093.353-.162l.25-.122-.213-.18a8.94 8.94 0 0 0-1.658-1.097c-.367-.188-.755-.35-1.13-.507l-.244-.104-.078.045zm8.84 1.98c-1 .358-1.9.768-2.75 1.253l-.156.089.087.157c.172.308.335.602.506.894l.052.09h.103c.707.003 1.343.11 1.943.33.427.156.804.363 1.122.614.096.076.19.159.278.245l.352.347-.045-.491a6.898 6.898 0 0 0-1.284-3.465l-.08-.11-.128.047zM1.064 7.676l-.04.08-.001.04A6.847 6.847 0 0 0 2.1 11.739l.15.237.154-.235a24.988 24.988 0 0 1 2.87-3.624 22.879 22.879 0 0 1 3.649-3.08l.167-.114-.364-.426s-.321.142-.417.186c-.411.185-.801.359-1.217.487-.646.198-1.318.335-1.968.467l-.201.04c-1.553.316-2.808.965-3.834 1.982l-.026.017zm10.69-.03c.574 1.602.892 3.259.974 5.064l.019.417.292-.299a7.09 7.09 0 0 0 1.626-2.725l.008-.024v-.024a2.143 2.143 0 0 0-.052-.575c-.164-.604-.455-1.062-.891-1.405-.343-.272-.782-.47-1.304-.59a4.91 4.91 0 0 0-.478-.08l-.293-.037.1.278zM9.53 5.849c-2.614 1.763-4.747 3.997-6.522 6.832l-.078.123.103.102c.209.207.427.4.648.575a6.94 6.94 0 0 0 3.26 1.428l.134.021.059-.121c.497-1.021.65-2.108.729-2.942l.039-.41c.065-.704.132-1.432.245-2.146.189-1.189.838-2.093 1.877-2.616l.172-.087-.506-.867-.16.108zm.919 1.768c-.571.295-.952.722-1.164 1.305-.22.61-.273 1.267-.323 1.903l-.026.339c-.073.96-.148 1.954-.441 2.91-.07.223-.15.446-.227.654l-.097.261.277-.017a6.736 6.736 0 0 0 3.14-.98l.083-.05.004-.098c.085-2.245-.233-4.252-.974-6.133l-.074-.186-.178.092zM7.982 16a7.89 7.89 0 0 1-4.937-1.724A7.95 7.95 0 0 1 .099 9.257a7.956 7.956 0 0 1 1.52-6.079A7.995 7.995 0 0 1 8.014 0c1.806 0 3.516.598 4.948 1.73a7.953 7.953 0 0 1 2.936 5.003 7.95 7.95 0 0 1-1.428 5.968 8.06 8.06 0 0 1-2.268 2.106 7.881 7.881 0 0 1-2.95 1.095 8.367 8.367 0 0 1-1.27.098z"/>
</svg>
