<svg xmlns="http://www.w3.org/2000/svg" width="16" height="16" viewBox="0 0 16 16">
    <path fill="#FFF" fill-rule="evenodd" d="M13.216 13.372l.294-1.699c1.032-.53 1.597-1.656 1.901-2.62a7.465 7.465 0 0 1-2.195 4.32zm-.187-2.302l-2.609-.39a21.042 21.042 0 0 0-.496-1.967 21.157 21.157 0 0 0-.818-2.197l1.732-2.67c1.083.069 2.211.456 3.252 1.378l.861 2.518c-.137.829-.597 2.766-1.922 3.328zm-5.45 2.476c-.983-.066-2.422-.27-3.846-.875L2.557 9.437c.322-.731 1.012-1.965 2.39-3.298l3.52.776c.28.66.531 1.333.74 2.017.204.67.363 1.354.498 2.043l-2.127 2.571zM8 15.494c-1.854 0-3.55-.68-4.86-1.799l.353-.32c1.625.683 3.246.887 4.272.937l1.047 1.136a7.513 7.513 0 0 1-.812.046zM.513 8.264C.51 8.177.5 8.089.5 7.997c0-2.02.812-3.848 2.116-5.197.026-.021.655-.28 1.796-.173l.102 2.896C3.154 6.815 2.401 8.02 2 8.848L.513 8.265zM8 .5c.048 0 .095.005.142.008-.155.158-.283.33-.383.494l-2.594.991a5.149 5.149 0 0 0-1.47-.119A7.444 7.444 0 0 1 8 .5zm1.236.114a7.509 7.509 0 0 1 4.875 3.053l-.14.514a5.95 5.95 0 0 0-3.3-1.065L8.592 1.12c.171-.203.382-.492.644-.507zM.602 4.956A8.2 8.2 0 0 0 0 7.996c-.004.307.07 1.006.07 1.006.08.728.265 1.421.544 2.069.07.165.15.323.228.482.02.04.037.081.058.121a8.019 8.019 0 0 0 1.702 2.213l.163.149C4.17 15.25 5.998 16.079 8 15.994c1.861-.08 3.051-.59 3.051-.59 1.011-.394 1.892-1.092 2.025-1.226l.001-.002a7.976 7.976 0 0 0 2.892-5.58l.031-.6c0-3.543-2.309-6.544-5.502-7.593l-.08-.03-.09-.027A12.518 12.518 0 0 0 9.65.172L9.59.16C9.547.15 9.502.14 9.46.131a2.424 2.424 0 0 0-.199-.033S8.953.052 8.843.043C8.44.007 8 0 8 0a7.965 7.965 0 0 0-5.159 1.89v-.002s-1.35.94-2.239 3.068z"/>
</svg>
