<svg xmlns="http://www.w3.org/2000/svg" width="16" height="16" viewBox="0 0 16 16">
    <g fill="none" fill-rule="evenodd">
        <path d="M0 0h16v16H0z"/>
        <path fill="#FFF" d="M15.427 12.104l.495.682c.198.292 0 .584-.396.584h-4.159a.546.546 0 0 1-.495-.292L8 8.5l-2.872 4.578a.546.546 0 0 1-.495.292H.473c-.395 0-.593-.292-.395-.584l.297-.682c.198-.292.594-.585.99-.585h2.97a.546.546 0 0 0 .496-.292L7.208 7.43 3.643 1.682c-.198-.39-.1-.682.198-.682.396 0 .891.292 1.09.682L7.9 6.357l2.97-4.675c.298-.39.793-.682 1.09-.682.396 0 .396.292.198.682L8.594 7.429l2.377 3.798a.546.546 0 0 0 .495.292h2.97c.397 0 .793.293.991.585zm-9.606 2.24h4.16V16H5.82v-1.656z"/>
    </g>
</svg>
