<svg xmlns="http://www.w3.org/2000/svg" width="16" height="16" viewBox="0 0 16 16">
    <g fill="none" fill-rule="evenodd">
        <path d="M0 0h16v16H0z"/>
        <path fill="#FFF" d="M14.112 16a1.877 1.877 0 0 1-1.886-1.867c0-1.03.845-1.866 1.886-1.866 1.043 0 1.888.836 1.888 1.866A1.878 1.878 0 0 1 14.112 16zm.483-8.892a5.096 5.096 0 0 0 .533-1.637 4.35 4.35 0 0 0-.098-1.723l-1.915 1.895 1.48 1.465zm-2.254 2.318a5.75 5.75 0 0 0 1.931-1.771l-1.596-1.579-1.86 1.841 1.525 1.51zm-6.45-.13a4.616 4.616 0 0 1-.614-.898c-.162.827-.41 1.743-.796 2.604l.57.526c.858-.443 1.78-.75 2.616-.963A4.741 4.741 0 0 1 5.89 9.296zm2.303-7.653a5.683 5.683 0 0 0-1.86 1.841L8.108 5.24l1.86-1.84-1.775-1.757zm2.214 1.322l1.97-1.947a4.61 4.61 0 0 0-1.362-.202c-.752 0-1.526.173-2.258.517l1.65 1.632zm-1.86 2.708l1.83 1.811 1.86-1.84-1.83-1.81-1.86 1.84zM6.027 4.05a4.972 4.972 0 0 0-.453 1.624c-.001.077-.005.26-.02.526.008.457.088.906.24 1.33L7.67 5.673 6.028 4.05zm1.989 5.77l1.922-1.902-1.83-1.809-2.04 2.017c.126.224.274.438.447.637.41.47.922.822 1.5 1.057zm1.645.322h.047c.698 0 1.391-.15 2.045-.428l-1.377-1.362-1.694 1.676c.313.07.64.11.979.114zm5.135-7.028a3.816 3.816 0 0 0-.59-.919 3.883 3.883 0 0 0-1.209-.923l-2.151 2.13 1.83 1.808 2.12-2.096zM6.93 1.547c2.466-2.106 6.01-2.055 7.903.111.923 1.058 1.318 2.452 1.114 3.924-.202 1.453-.966 2.813-2.153 3.827a6.428 6.428 0 0 1-3.247 1.49.42.42 0 0 1-.095.017c-.03.002-3.023.215-5.261 1.468l-.319.098-3.284 3.25a.938.938 0 0 1-1.316 0 .915.915 0 0 1 0-1.303l3.24-3.203.097-.305c.847-1.735 1.064-3.859 1.12-4.8 0-.154.006-.308.019-.463v-.025c0-.033.006-.065.013-.096.158-1.45.896-2.903 2.169-3.99z"/>
    </g>
</svg>
