<svg xmlns="http://www.w3.org/2000/svg" width="24" height="24" viewBox="0 0 24 24">
    <path fill="#0CB720" fill-rule="nonzero" d="M14.297 11.758a2.3 2.3 0 0 1-1.77 2.235v-4.47a2.3 2.3 0 0 1 1.77 2.235zm3.879-1.412c0-.488.397-.885.885-.885H21v4.594h-1.94a.886.886 0 0 1-.884-.885v-2.824zm-8.473 1.412a2.3 2.3 0 0 1 1.77-2.235v4.47a2.3 2.3 0 0 1-1.77-2.235zm9.358-6.74c1.069 0 1.939.87 1.939 1.94v1.449h-1.94c-1.069 0-1.939.87-1.939 1.94v2.823c0 1.07.87 1.94 1.94 1.94H21v1.45c0 1.069-.87 1.939-1.94 1.939h-6.533v-3.43a3.357 3.357 0 0 0 2.825-3.31 3.357 3.357 0 0 0-2.825-3.31V5.017h6.534zM3 6.958c0-1.07.87-1.94 1.94-1.94h6.533v3.43a3.357 3.357 0 0 0-2.825 3.31 3.357 3.357 0 0 0 2.825 3.31v3.43H4.939C3.87 18.499 3 17.629 3 16.56v-1.45h1.94c1.069 0 1.939-.87 1.939-1.939v-2.824c0-1.07-.87-1.94-1.94-1.94H3V6.958zm2.824 6.212a.886.886 0 0 1-.885.885H3V9.461h1.94c.487 0 .884.397.884.885v2.824z"/>
</svg>
