<svg xmlns="http://www.w3.org/2000/svg" width="24" height="24" viewBox="0 0 24 24">
    <path fill="#FFF" fill-rule="evenodd" d="M8.111 6.768V4.563H20.89v2.205H8.11zm-3.778.1A1.329 1.329 0 0 1 3 5.544c0-.73.597-1.323 1.333-1.323.737 0 1.334.592 1.334 1.323S5.07 6.868 4.333 6.868zm3.778 5.967v-2.206H20.89v2.206H8.11zm-3.778.099A1.329 1.329 0 0 1 3 11.61c0-.73.597-1.323 1.333-1.323.737 0 1.334.592 1.334 1.323s-.597 1.324-1.334 1.324zM8.111 18.9v-2.206H20.89V18.9H8.11zm-3.778.01A1.329 1.329 0 0 1 3 17.589c0-.73.597-1.323 1.333-1.323.737 0 1.334.592 1.334 1.323s-.597 1.324-1.334 1.324z"/>
</svg>
