<svg xmlns="http://www.w3.org/2000/svg" xmlns:xlink="http://www.w3.org/1999/xlink" width="16" height="16" viewBox="0 0 16 16">
  <defs>
    <polygon id="goal_auto-a" points="0 15.041 15.019 15.041 15.019 .01 0 .01"/>
    <polygon id="goal_auto-b" points="0 15.041 15.019 15.041 15.019 .01 0 .01"/>
    <polygon id="goal_auto-d" points="0 .012 0 5.107 2.808 5.107 2.808 .012 0 .012"/>
  </defs>
  <g fill="none" fill-rule="evenodd">
    <path fill="#FFF" fill-rule="nonzero" d="M7.50936331,14.7109938 C11.4705082,14.7109938 14.6816337,11.4972655 14.6816337,7.53290986 C14.6816337,3.56855424 11.4705082,0.354825883 7.50936331,0.354825883 C3.54821843,0.354825883 0.337092888,3.56855424 0.337092888,7.53290986 C0.337092888,11.4972655 3.54821843,14.7109938 7.50936331,14.7109938"/>
    <path fill="#ED3B3B" fill-rule="nonzero" d="M10.3568969.944215611L10.817652 3.32183925 13.5455466 3.6583506C12.7793447 2.46503996 11.6706107 1.51376557 10.3568969.944215611M13.4891772 11.4955334C14.2421183 10.3598076 14.6815213 8.99801639 14.6815213 7.53297733 14.6815213 7.37889292 14.6750033 7.22660805 14.6655635 7.07499798L12.5478883 8.62416488 13.4891772 11.4955334zM10.099436 14.226494L7.55966426 12.4661077 5.14193644 14.3088223C5.88341491 14.5684039 6.67950976 14.7110163 7.50931834 14.7110163 8.42296189 14.7110163 9.29569939 14.5382618 10.099436 14.226494"/>
    <path fill="#BF1313" fill-rule="nonzero" d="M11.538183,1.58041551 C12.2904499,2.71591637 12.7296281,4.07703279 12.7296281,5.54162195 C12.7296281,9.50597757 9.51850254,12.7197059 5.55735768,12.7197059 C4.09417945,12.7197059 2.73394065,12.2801717 1.5995842,11.5270701 C2.88385461,13.4653845 5.08244285,14.7441726 7.58018472,14.7441726 C11.5413296,14.7441726 14.7524551,11.5304442 14.7524551,7.56608863 C14.7524551,5.06609724 13.4749275,2.8657269 11.538183,1.58041551" opacity=".3"/>
    <g transform="translate(0 .007)">
      <mask id="goal_auto-c" fill="#fff">
        <use xlink:href="#goal_auto-b"/>
      </mask>
      <path fill="#BB0101" fill-rule="nonzero" d="M7.50943072,0.685263308 C3.74045445,0.685263308 0.674298157,3.75390488 0.674298157,7.52593617 C0.674298157,11.2977425 3.74045445,14.366609 7.50943072,14.366609 C11.278407,14.366609 14.3443386,11.2977425 14.3443386,7.52593617 C14.3443386,3.75390488 11.278407,0.685263308 7.50943072,0.685263308 M7.50943072,15.0414312 C3.36870376,15.0414312 2.2475856e-05,11.6697945 2.2475856e-05,7.52593617 C2.2475856e-05,3.3818529 3.36870376,0.0104410866 7.50943072,0.0104410866 C11.6501577,0.0104410866 15.0186142,3.3818529 15.0186142,7.52593617 C15.0186142,11.6697945 11.6501577,15.0414312 7.50943072,15.0414312" mask="url(#goal_auto-c)"/>
    </g>
    <polygon fill="#ED3B3B" fill-rule="nonzero" points="7.509 10.199 4.709 8.162 5.778 4.867 9.24 4.867 10.31 8.162"/>
    <path fill="#BB0101" fill-rule="nonzero" d="M5.10514346,8.03326802 L7.50938578,9.78150747 L9.91385286,8.03326802 L8.99548938,5.20463824 L6.02328219,5.20463824 L5.10514346,8.03326802 Z M7.50938578,10.5361837 C7.43993538,10.5361837 7.37026022,10.5145893 7.31114873,10.4718506 L4.51043231,8.43523714 C4.39243407,8.34930978 4.34298718,8.1970249 4.38816365,8.05778658 L5.45756487,4.76285463 C5.5029661,4.62384123 5.63242704,4.52981601 5.77829534,4.52981601 L9.24025143,4.52981601 C9.38634452,4.52981601 9.51580544,4.62384123 9.56098191,4.76285463 L10.6308327,8.05778658 C10.6757844,8.1970249 10.6263375,8.34908484 10.5083393,8.43523714 L7.70762283,10.4718506 C7.64851132,10.5145893 7.57906094,10.5361837 7.50938578,10.5361837 Z"/>
    <path fill="#ED3B3B" fill-rule="nonzero" d="M5.07880176,0.778434286 C3.65608007,1.29129917 2.44283336,2.24144886 1.59953924,3.46692601 L4.51802916,3.21094347 L5.07880176,0.778434286 Z"/>
    <path fill="#BB0101" fill-rule="nonzero" d="M4.60294293 1.34128101C3.74121862 1.74887363 2.96400351 2.3400179 2.33737665 3.06342732L4.24445302 2.89629634 4.60294293 1.34128101zM1.59949429 3.80438212C1.4801475 3.80438212 1.36866725 3.74094884 1.3082072 3.63680127 1.24235294 3.52388103 1.24774715 3.3830681 1.32169271 3.27554644 2.22095171 1.96931555 3.48072345.99599697 4.9643547.46108789 5.08033011.419023972 5.21024056.443992394 5.30261634.526095764 5.39476733.608199132 5.43499914.733941008 5.4073538.854284305L4.84658121 3.28679349C4.81354171 3.42918095 4.69284636 3.53422828 4.54742757 3.54704992L1.62893766 3.80303249C1.61904829 3.80393222 1.60915891 3.80438212 1.59949429 3.80438212zM11.1018367 3.01702204L12.8205654 3.22891623C12.266086 2.54262202 11.5875399 1.97262218 10.8168428 1.54613454L11.1018367 3.01702204zM13.5456365 3.99596415C13.532151 3.99596415 13.518216 3.99506438 13.504281 3.99326485L10.7763863 3.6567535C10.631417 3.6389832 10.5145426 3.52966198 10.4866725 3.3861498L10.0259175 1.00852617C10.0020931.885483585 10.0483933.759516769 10.1457138.681237391 10.2434837.602958015 10.3760913.584737814 10.4909429.634674658 11.8633187 1.22964292 13.0176787 2.21218407 13.8292818 3.47612609 13.899856 3.58612211 13.9005303 3.72715997 13.8310799 3.83805575 13.7688218 3.93702966 13.6607129 3.99596415 13.5456365 3.99596415z"/>
    <path fill="#BB0101" fill-rule="nonzero" d="M1.09457879,2.05105466 C2.23365517,2.33223059 3.4473514,2.31288568 4.57451558,1.99616912 L2.78970785,0.758770106 L1.09457879,2.05105466 Z M2.73014683,2.92427462 C1.88348134,2.92427462 1.04940232,2.78256195 0.251509429,2.50318555 C0.13441022,2.46202139 0.0492267262,2.36012324 0.0298974897,2.23730559 C0.010343495,2.11471289 0.0597903782,1.99144536 0.158459386,1.91609022 L2.57596246,0.0733756695 C2.69216264,-0.0154759229 2.85196597,-0.0186250933 2.97221179,0.0643780399 L5.51220827,1.82498922 C5.61469818,1.89629543 5.66953928,2.01821331 5.65492996,2.14215566 C5.64032068,2.26609801 5.5582838,2.3720451 5.44208363,2.41703325 C4.57451558,2.75354459 3.66222057,2.92427462 2.73014683,2.92427462 Z" transform="translate(4.78 12.124)"/>
    <path fill="#ED3B3B" fill-rule="nonzero" d="M2.47083828,8.62416488 L0.353163125,7.07499798 C0.343498509,7.22660805 0.337205269,7.37889292 0.337205269,7.53297733 C0.337205269,8.99801639 0.776608252,10.3598076 1.52954943,11.4955334 L2.47083828,8.62416488 Z"/>
    <g transform="translate(0 6.726)">
      <mask id="goal_auto-e" fill="#fff">
        <use xlink:href="#goal_auto-d"/>
      </mask>
      <path fill="#BB0101" fill-rule="nonzero" d="M0.677130114,1.00431542 C0.706573485,2.03994259 0.967742933,3.0454277 1.44130922,3.95688757 L2.07422933,2.02644614 L0.677130114,1.00431542 Z M1.52963933,5.10723453 C1.41770957,5.10723453 1.31162353,5.05144921 1.24869113,4.95629929 C0.431693766,3.72452378 -6.74275682e-05,2.28985175 -6.74275682e-05,0.807267329 C-6.74275682e-05,0.646209761 0.00690008779,0.486951716 0.0167894645,0.328593433 C0.0244312555,0.205550849 0.0986015804,0.0964545894 0.210081826,0.044043397 C0.320887798,-0.00836779555 0.452596312,0.00400394517 0.551939596,0.0771096859 L2.66961475,1.62627657 C2.78783775,1.71242887 2.83661036,1.86493869 2.79098437,2.00372713 L1.84992028,4.87509569 C1.8096885,4.99791332 1.70270342,5.08676491 1.5748158,5.10431031 C1.55975698,5.10610984 1.5444734,5.10723453 1.52963933,5.10723453 Z" mask="url(#goal_auto-e)"/>
    </g>
    <path fill="#FEFEFE" fill-rule="nonzero" d="M5.77840772,4.86713713 L4.59010923,3.30852275"/>
    <path fill="#BB0101" fill-rule="nonzero" d="M5.77854257,5.20459324 C5.67695171,5.20459324 5.5767094,5.15893026 5.51040563,5.0718782 L4.32233186,3.51326381 C4.20927831,3.36502787 4.23782267,3.15335861 4.38571377,3.04043837 C4.5342792,2.92729318 4.74532749,2.95586066 4.85815629,3.10409661 L6.04623003,4.66248605 C6.15928358,4.810722 6.13073925,5.02239123 5.98284812,5.1353115 C5.92171377,5.18209915 5.84979105,5.20459324 5.77854257,5.20459324"/>
    <path fill="#FEFEFE" fill-rule="nonzero" d="M9.2402964,4.86713713 L10.817652,3.32201919"/>
    <path fill="#BB0101" fill-rule="nonzero" d="M9.24034134 5.20459324C9.1526855 5.20459324 9.0654792 5.17085214 8.99940017 5.10314497 8.86926496 4.97020499 8.87128779 4.75651127 9.00456961 4.62604566L10.5819252 3.08092772C10.7145328 2.95046207 10.9282781 2.95271147 11.0586381 3.08587641 11.1887733 3.21904132 11.1865257 3.43273504 11.0532439 3.56297572L9.47611307 5.10831859C9.41070834 5.1724267 9.32552484 5.20459324 9.24034134 5.20459324M2.47036629 8.96157599C2.31393433 8.96157599 2.17346023 8.8518049 2.14064548 8.69232191 2.10288604 8.50967003 2.22043477 8.33129201 2.40271396 8.29372692L4.64063493 7.83192358C4.82134081 7.79368365 5.00137243 7.91155259 5.03890711 8.09420447 5.07666655 8.27663142 4.95911781 8.45500944 4.77683864 8.49257453L2.53891765 8.95460281C2.51599227 8.95932656 2.4930669 8.96157599 2.47036629 8.96157599"/>
    <path fill="#BB0101" fill-rule="nonzero" d="M0.748225847,2.0262212 L1.38114595,3.95666263 C1.85471224,3.0454277 2.11588169,2.03994259 2.14532506,1.00431542 L0.748225847,2.0262212 Z M1.2930406,5.10723453 C1.27798177,5.10723453 1.26292295,5.10610984 1.24786413,5.10431031 C1.11975175,5.08676491 1.01299143,4.99791332 0.972759649,4.87509569 L0.0314707997,2.00372713 C-0.0143799466,1.86493869 0.0346174195,1.71242887 0.152840422,1.62627657 L2.27029082,0.0771096859 C2.36985886,0.00422888594 2.50134262,-0.00791791406 2.61214859,0.0438184564 C2.72362883,0.0962296488 2.79779916,0.205100967 2.80566571,0.328143551 C2.81690364,0.504272153 2.8225226,0.661280789 2.8225226,0.807267329 C2.8225226,2.28962681 2.39076141,3.72429885 1.5739888,4.95629929 C1.5110564,5.05144921 1.40497036,5.10723453 1.2930406,5.10723453 Z" transform="translate(12.196 6.726)"/>
    <path fill="#BB0101" fill-rule="nonzero" d="M12.5482929,8.96157599 C12.5255923,8.96157599 12.5026669,8.95932656 12.4797415,8.95460281 L10.2420453,8.49257453 C10.0597661,8.45500944 9.9422174,8.27663142 9.97997683,8.09420447 C10.0175115,7.91155259 10.1973183,7.79390859 10.378249,7.83192358 L12.6159452,8.29372692 C12.7982244,8.33129201 12.9157731,8.50967003 12.8780137,8.69232191 C12.8451989,8.8518049 12.7047248,8.96157599 12.5482929,8.96157599"/>
    <path fill="#FEFEFE" fill-rule="nonzero" d="M7.50936331,10.1987501 L7.50936331,12.4659278"/>
    <path fill="#BB0101" fill-rule="nonzero" d="M7.50943072,12.8033614 C7.32333064,12.8033614 7.17229289,12.6522012 7.17229289,12.4659503 L7.17229289,10.1987726 C7.17229289,10.0125216 7.32333064,9.86136145 7.50943072,9.86136145 C7.69553081,9.86136145 7.84656858,10.0125216 7.84656858,10.1987726 L7.84656858,12.4659503 C7.84656858,12.6522012 7.69553081,12.8033614 7.50943072,12.8033614"/>
  </g>
</svg>
