<svg xmlns="http://www.w3.org/2000/svg" width="24" height="24" viewBox="0 0 24 24">
    <g fill="none" fill-rule="evenodd">
        <circle cx="12" cy="12" r="12" fill="#FFF"/>
        <g fill="#0CB720">
            <path fill-rule="nonzero" d="M17.993 4.822l-7.608 3.074a.516.516 0 0 0-.28.27.489.489 0 0 0-.006.38l.185.459-.943.38-.185-.458a.502.502 0 0 0-.658-.269l-.775.313c-2.67 1.08-4.199 3.861-3.555 6.47a5.32 5.32 0 0 0 2.08 3.084 1.956 1.956 0 0 0-.17 1.793c.409 1.012 1.588 1.494 2.628 1.074a2.036 2.036 0 0 0 1.285-1.853 5.735 5.735 0 0 0 1.641-.397c.32-.13.633-.289.935-.477a5.54 5.54 0 0 0 2.163-2.534 5.32 5.32 0 0 0 .311-3.319c-.24-1.035.197-2.051 1.087-2.528l3.4-1.812a.5.5 0 0 0 .235-.627L18.65 5.091a.502.502 0 0 0-.657-.269zM8.335 20.474c-.52.21-1.11-.031-1.314-.537a.978.978 0 0 1 .092-.907 5.646 5.646 0 0 0 1.865.507c0 .398-.245.776-.643.937zm7.32-11.06a3.157 3.157 0 0 0-1.43 1.564 3.338 3.338 0 0 0-.172 2.072l.01.045c.398 1.792-.436 3.74-2.029 4.734a4.753 4.753 0 0 1-2.637.735 4.583 4.583 0 0 1-2.123-.581l-.029-.016a4.359 4.359 0 0 1-2.092-2.776c-.526-2.132.738-4.411 2.941-5.301l.304-.123.185.46a.502.502 0 0 0 .657.268l1.887-.762a.502.502 0 0 0 .286-.65l-.186-.46 4.716-1.905.845 2.092-1.132.603zm2.999-1.6l-.963.514-.804-1.99 1.006-.407.76 1.884z"/>
            <path d="M8.7 6.44a.502.502 0 0 0 .286-.649l-.557-1.377a.502.502 0 0 0-.657-.269.502.502 0 0 0-.286.65l.557 1.377a.502.502 0 0 0 .657.269zM10.957 6.597a.514.514 0 0 0 .28-.27l.571-1.299a.486.486 0 0 0-.262-.649.518.518 0 0 0-.667.27l-.572 1.299a.486.486 0 0 0 .262.65.514.514 0 0 0 .388-.001zM6.797 8.121a.514.514 0 0 0 .666-.27.486.486 0 0 0-.262-.648l-1.314-.538a.518.518 0 0 0-.667.27.486.486 0 0 0 .262.65l1.315.536z"/>
            <path fill-rule="nonzero" d="M8.668 11.794c-1.3.525-1.942 1.983-1.43 3.248.511 1.266 1.985 1.868 3.285 1.343 1.3-.525 1.942-1.982 1.43-3.248-.51-1.266-1.985-1.868-3.285-1.343zm1.484 3.673c-.78.315-1.664-.046-1.97-.806-.308-.76.077-1.634.857-1.949.78-.315 1.665.047 1.972.806.306.76-.079 1.634-.859 1.949z"/>
        </g>
    </g>
</svg>
