<svg xmlns="http://www.w3.org/2000/svg" width="593" height="96" viewBox="0 0 593 96">
    <defs>
        <linearGradient id="a" x1="37.585%" x2="59.242%" y1="-.116%" y2="99.714%">
            <stop offset="50%" stop-color="#FFF"/>
            <stop offset="100%" stop-color="#CCC"/>
        </linearGradient>
        <linearGradient id="b" x1="39.568%" x2="60.854%" y1=".056%" y2="100.057%">
            <stop offset="50%" stop-color="#FFF"/>
            <stop offset="100%" stop-color="#CCC"/>
        </linearGradient>
        <linearGradient id="c" x1="40.112%" x2="60.046%" y1=".023%" y2="99.919%">
            <stop offset="50%" stop-color="#FFF"/>
            <stop offset="100%" stop-color="#CCC"/>
        </linearGradient>
        <linearGradient id="d" x1="36.926%" x2="58.064%" y1=".003%" y2="100.024%">
            <stop offset="50%" stop-color="#FFF"/>
            <stop offset="100%" stop-color="#CCC"/>
        </linearGradient>
        <linearGradient id="e" x1="37.547%" x2="61.385%" y1=".003%" y2="99.937%">
            <stop offset="50%" stop-color="#FFF"/>
            <stop offset="100%" stop-color="#CCC"/>
        </linearGradient>
        <linearGradient id="f" x1="45.287%" x2="78.492%" y1="-.063%" y2="100.003%">
            <stop offset="50%" stop-color="#FFF"/>
            <stop offset="100%" stop-color="#CCC"/>
        </linearGradient>
        <linearGradient id="g" x1="45.297%" x2="78.467%" y1="-.063%" y2="100.003%">
            <stop offset="50%" stop-color="#FFF"/>
            <stop offset="100%" stop-color="#CCC"/>
        </linearGradient>
        <linearGradient id="h" x1="45.298%" x2="78.503%" y1="-.063%" y2="100.003%">
            <stop offset="50%" stop-color="#FFF"/>
            <stop offset="100%" stop-color="#CCC"/>
        </linearGradient>
    </defs>
    <g fill="none" fill-rule="evenodd">
        <path fill="#FFF" d="M0 0h592.541v95.659H0z"/>
        <path fill="#335066" d="M187.588 5.165h399.437v85.523H187.588z"/>
        <path fill="#E52E2E" d="M5.369 5.165h176.85v85.523H5.369z"/>
        <g fill="#000" opacity=".25">
            <path d="M201.89 59.793h16.743c.05 1.608.196 2.729.39 3.362.391 1.072 1.172 1.852 2.344 2.193.976.341 2.49.536 4.588.585l6.59.195c.976.049 5.174-.049 12.545-.146 2.978-.049 5.077-.293 6.297-.683 2.245-.78 3.368-2.29 3.368-4.531 0-2.827-1.61-4.435-4.93-4.874-.83-.097-3.71-.146-8.64-.146H225.76c-7.615 0-12.74-.39-15.425-1.218-3.368-1.023-5.76-3.021-7.126-5.896-1.026-2.193-1.562-5.36-1.562-9.406 0-6.48 1.513-10.964 4.588-13.45 2.538-2.095 7.224-3.41 14.156-4.044 2.733-.244 8.2-.39 16.352-.39 11.666 0 18.988.341 21.966.975 3.954.877 6.785 2.534 8.396 4.97 1.513 2.193 2.245 5.41 2.245 9.6v1.9h-16.596c0-2.874-1.562-4.677-4.589-5.262-.634-.146-3.368-.195-8.151-.195-6.688 0-11.862.146-15.474.39-1.953.146-3.368.438-4.247.926-1.22.73-1.806 1.949-1.806 3.703 0 2.34 1.22 3.85 3.612 4.484 1.025.292 3.32.39 6.883.39h15.864c1.074 0 3.856.097 8.347.243 5.272.195 8.933.731 11.13 1.657 4.88 2.047 7.321 7.115 7.321 15.253 0 7.504-2.05 12.377-6.15 14.619-3.856 2.095-13.814 3.167-29.825 3.167-12.203 0-20.257-.39-24.016-1.17-3.71-.779-6.297-2.387-7.81-4.872-1.318-2.144-1.952-5.214-1.952-9.21-.05-.585 0-1.608 0-3.12zM330.122 56.577h16.5v2.534c0 5.214-.635 9.015-1.856 11.451-1.61 3.12-4.637 5.263-9.177 6.287-2.245.536-5.564.877-9.957 1.023-3.027.098-8.982.146-17.866.146-7.322 0-12.887-.243-16.694-.73-7.273-.927-11.862-4.143-13.717-9.65-1.317-3.8-1.952-10.233-1.952-19.248 0-6.969.44-11.89 1.27-14.668 1.463-5.02 4.636-8.43 9.469-10.234 3.807-1.462 11.52-2.193 23.137-2.193 14.644 0 23.626.488 26.847 1.462 3.905 1.17 6.59 3.314 8.054 6.335 1.172 2.388 1.758 5.8 1.758 10.234v1.95h-16.304c-.146-1.853-.44-3.168-.878-3.948-.83-1.462-3.32-2.34-7.371-2.632-.293-.048-3.027-.048-8.152-.048-8.152 0-12.984.146-14.449.39-3.953.73-6.052 3.362-6.394 7.845-.098 1.51-.147 3.947-.195 7.31 0 6.189.78 10.038 2.343 11.647 1.269 1.267 3.71 2.095 7.322 2.436 1.22.098 3.905.146 7.956.146 9.616 0 15.279-.39 16.987-1.12 2.148-.878 3.27-3.12 3.32-6.725z"/>
            <path fill-rule="nonzero" d="M386.99 21.15c14.253 0 22.942.292 26.114.876 7.127 1.267 11.57 4.971 13.278 11.014.634 2.192 1.025 5.214 1.122 8.966.098 2.193.098 4.873.098 8.09 0 7.065-.44 12.23-1.318 15.545-1.953 7.358-7.615 11.403-16.987 12.134-4.15.34-10.934.487-20.355.487-8.103 0-13.082-.049-14.79-.146-6.639-.293-11.471-1.17-14.449-2.583-4.198-1.95-6.834-5.896-7.908-11.842-.439-2.534-.683-7.212-.683-14.18 0-4.679.049-7.7.146-8.967.244-3.362.781-6.286 1.709-8.723 2.148-5.799 7.566-9.161 16.206-10.038 4.051-.439 10.006-.634 17.816-.634zm2.343 13.595c-9.03 0-14.644.439-16.743 1.316-1.953.828-3.222 2.778-3.808 5.799-.244 1.316-.39 3.752-.39 7.358 0 4.727.293 8.09.83 10.088.83 2.972 3.563 4.58 8.103 4.921 2.635.195 5.857.293 9.664.293 10.154 0 16.353-.341 18.598-1.072 2.49-.78 4.052-2.875 4.735-6.19.244-1.266.39-4.044.39-8.38 0-3.315-.097-5.556-.243-6.726-.44-3.216-1.758-5.311-3.954-6.286-1.27-.585-3.905-.926-7.908-1.12-.683.048-3.759 0-9.274 0zM432.63 77.628l.048-55.894h48.374c5.565 0 9.567.292 12.008.926 4.442 1.17 7.37 3.557 8.786 7.212.977 2.534 1.465 5.897 1.465 10.087 0 6.725-1.611 11.209-4.784 13.45-1.708 1.218-5.32 2.193-10.885 2.973a82.11 82.11 0 0 0 2.782.146c4.003.195 6.639.73 8.006 1.56 2.684 1.705 4.051 5.262 4.051 10.671v8.87h-17.28v-6.97c0-4.19-1.464-6.53-4.442-6.968-.927-.146-2.587-.195-4.93-.195h-26.212v14.132H432.63zm16.987-27.825h26.651c3.515 0 5.858-.244 6.98-.682 1.904-.78 2.88-2.68 2.88-5.604 0-3.558-.634-5.8-1.903-6.823-1.074-.828-3.515-1.267-7.322-1.267h-27.286v14.376z"/>
            <path d="M508.046 21.685h62.09v12.72h-45.25v9.55h42.712v11.062h-42.712v9.893h45.836v12.718h-62.627z"/>
        </g>
        <path fill="url(#a)" d="M.586 39.082h16.743c.048 1.608.195 2.73.39 3.363.39 1.072 1.172 1.851 2.343 2.193.976.34 2.49.536 4.589.584l6.59.195c.976.049 5.174-.048 12.544-.146 2.978-.049 5.077-.292 6.297-.682 2.246-.78 3.368-2.29 3.368-4.532 0-2.827-1.61-4.435-4.93-4.873-.83-.098-3.71-.146-8.64-.146H24.455c-7.615 0-12.74-.39-15.425-1.219-3.368-1.023-5.76-3.021-7.126-5.896C.879 25.73.342 22.563.342 18.518c0-6.481 1.513-10.965 4.588-13.45 2.538-2.095 7.224-3.411 14.156-4.045 2.733-.243 8.2-.39 16.352-.39 11.667 0 18.988.342 21.966.975 3.954.877 6.785 2.534 8.396 4.97 1.513 2.194 2.245 5.41 2.245 9.6v1.901H51.45c0-2.875-1.562-4.678-4.589-5.263-.634-.146-3.368-.195-8.151-.195-6.688 0-11.862.147-15.474.39-1.953.146-3.368.439-4.247.926-1.22.731-1.806 1.95-1.806 3.704 0 2.339 1.22 3.85 3.612 4.483 1.025.292 3.32.39 6.883.39h15.864c1.074 0 3.856.097 8.347.243 5.272.195 8.933.731 11.13 1.657 4.88 2.047 7.322 7.115 7.322 15.253 0 7.505-2.05 12.378-6.15 14.62-3.857 2.095-13.815 3.167-29.826 3.167-12.203 0-20.257-.39-24.016-1.17-3.71-.78-6.297-2.388-7.81-4.873C1.22 49.267.586 46.197.586 42.201c-.05-.633-.05-1.608 0-3.119z" transform="translate(203.062 19.005)"/>
        <path fill="url(#b)" d="M128.769 35.817h16.498v2.534c0 5.214-.634 9.015-1.854 11.452-1.611 3.119-4.638 5.263-9.177 6.286-2.246.536-5.565.877-9.958 1.024-3.027.097-8.982.146-17.866.146-7.322 0-12.886-.244-16.694-.731-7.273-.926-11.861-4.142-13.716-9.649-1.318-3.8-1.953-10.233-1.953-19.249 0-6.968.44-11.89 1.27-14.668 1.464-5.019 4.637-8.43 9.47-10.233C88.595 1.267 96.308.536 107.925.536c14.643 0 23.625.487 26.847 1.462 3.905 1.17 6.59 3.314 8.054 6.335 1.171 2.388 1.757 5.799 1.757 10.233v1.95h-16.303c-.147-1.852-.44-3.168-.88-3.947-.829-1.462-3.318-2.34-7.37-2.632-.293-.049-3.026-.049-8.152-.049-8.151 0-12.984.147-14.448.39-3.954.731-6.053 3.363-6.395 7.846-.097 1.51-.146 3.947-.195 7.31 0 6.188.781 10.038 2.343 11.646 1.27 1.267 3.71 2.096 7.322 2.437 1.22.097 3.905.146 7.956.146 9.617 0 15.279-.39 16.987-1.12 2.148-.83 3.27-3.12 3.32-6.726z" transform="translate(203.062 19.005)"/>
        <path fill="url(#c)" fill-rule="nonzero" d="M185.636.39c14.253 0 22.942.292 26.115.877 7.127 1.267 11.568 4.97 13.277 11.013.635 2.193 1.025 5.214 1.123 8.967.097 2.193.097 4.873.097 8.089 0 7.066-.439 12.232-1.318 15.545-1.952 7.359-7.615 11.403-16.987 12.134-4.149.341-10.934.488-20.355.488-8.103 0-13.082-.05-14.79-.147-6.639-.292-11.471-1.17-14.449-2.582-4.198-1.95-6.833-5.897-7.907-11.842-.44-2.534-.684-7.212-.684-14.18 0-4.679.05-7.7.147-8.967.244-3.363.78-6.287 1.708-8.723 2.148-5.8 7.566-9.161 16.206-10.039 4.1-.438 10.007-.633 17.817-.633zm2.343 13.645c-9.03 0-14.644.438-16.743 1.315-1.953.829-3.222 2.778-3.807 5.8-.244 1.315-.39 3.752-.39 7.358 0 4.727.292 8.089.829 10.087.83 2.973 3.563 4.58 8.103 4.922 2.636.195 5.857.292 9.665.292 10.153 0 16.352-.341 18.598-1.072 2.49-.78 4.051-2.875 4.734-6.189.245-1.267.391-4.044.391-8.382 0-3.313-.098-5.555-.244-6.724-.44-3.217-1.757-5.312-3.954-6.287-1.27-.584-3.905-.926-7.908-1.12h-9.274z" transform="translate(203.062 19.005)"/>
        <path fill="url(#d)" fill-rule="nonzero" d="M231.276 56.869l.049-55.894h48.374c5.564 0 9.567.292 12.008.926 4.441 1.17 7.37 3.557 8.786 7.212.976 2.534 1.464 5.896 1.464 10.087 0 6.725-1.61 11.208-4.783 13.45-1.709 1.218-5.321 2.193-10.886 2.972.635.05 1.562.098 2.783.147 4.002.194 6.638.73 8.005 1.559 2.685 1.706 4.051 5.263 4.051 10.672v8.869h-17.28v-6.968c0-4.191-1.464-6.53-4.441-6.969-.928-.146-2.587-.195-4.93-.195h-26.213V56.87h-16.987zm17.036-27.777h26.652c3.514 0 5.857-.243 6.98-.682 1.904-.78 2.88-2.68 2.88-5.604 0-3.557-.635-5.799-1.904-6.822-1.074-.829-3.514-1.267-7.322-1.267h-27.286v14.375z" transform="translate(203.062 19.005)"/>
        <path fill="url(#e)" d="M306.692.975h62.09v12.718h-45.25v9.552h42.712v11.062h-42.711v9.892h45.835v12.719h-62.627z" transform="translate(203.062 19.005)"/>
        <g>
            <g fill="#000" opacity=".25">
                <path d="M64.726 32.455l-16.89 45.173H31.68l16.206-43.321h-15.62v3.313H19.671V21.685h45.054zM114.613 32.455l-16.89 45.173H81.568l16.205-43.321h-15.62v3.313H69.56V21.685h45.054zM164.549 32.455l-16.89 45.173h-16.157l16.206-43.321h-15.62v3.313h-12.594V21.685h45.055z"/>
            </g>
            <path fill="url(#f)" d="M45.445 10.77l-16.89 45.173H12.4l16.205-43.322h-15.62v3.314H.391V0h45.054z" transform="translate(20.99 19.98)"/>
            <path fill="url(#g)" d="M95.38 10.77L78.492 55.943H62.334L78.54 12.621H62.92v3.314H50.277V0h45.055z" transform="translate(20.99 19.98)"/>
            <path fill="url(#h)" d="M145.267 10.77l-16.889 45.173h-16.157l16.206-43.322h-15.62v3.314h-12.594V0h45.054z" transform="translate(20.99 19.98)"/>
        </g>
    </g>
</svg>
