<svg xmlns="http://www.w3.org/2000/svg" width="108" height="32" viewBox="0 0 108 32">
    <g fill="none" fill-rule="evenodd">
        <path fill="#17232c" d="M6.152 31.998c-.247 0-.489-.003-.734-.009a10.02 10.02 0 0 1-1.52-.136 4.686 4.686 0 0 1-1.345-.458 4.4 4.4 0 0 1-1.135-.85 4.447 4.447 0 0 1-.83-1.17 4.886 4.886 0 0 1-.44-1.385 10.684 10.684 0 0 1-.136-1.569C.007 26.245 0 25.657 0 25.657V6.332s.007-.578.012-.748c.006-.525.051-1.048.134-1.566.078-.484.227-.953.442-1.39.212-.434.49-.829.825-1.17a4.53 4.53 0 0 1 1.14-.856c.422-.22.875-.373 1.343-.455A9.94 9.94 0 0 1 5.42.01L6.153 0h95.69l.742.01c.506.007 1.01.052 1.51.137.472.082.93.237 1.358.458a4.615 4.615 0 0 1 1.962 2.024c.212.435.358.9.435 1.38.084.522.132 1.05.141 1.579.003.236.003.49.003.744.006.314.006.612.006.914v17.508c0 .303 0 .6-.006.899 0 .272 0 .521-.004.778-.01.52-.055 1.038-.138 1.55a4.902 4.902 0 0 1-.44 1.397 4.58 4.58 0 0 1-.824 1.16 4.407 4.407 0 0 1-1.137.855 4.668 4.668 0 0 1-1.356.46c-.502.084-1.01.13-1.519.136-.238.006-.487.01-.729.01l-.88.001-94.815-.002z"/>
        <g fill="#FFF">
            <path fill-rule="nonzero" d="M35.261 6.585a2.112 2.112 0 0 1 2.246 2.372c0 1.525-.824 2.401-2.246 2.401h-1.724V6.585h1.724zm-.983 4.098h.9a1.5 1.5 0 0 0 1.574-1.717 1.505 1.505 0 0 0-1.574-1.707h-.9v3.424zM38.345 9.555a1.707 1.707 0 1 1 3.397 0 1.707 1.707 0 1 1-3.397 0zm2.666 0c0-.78-.35-1.237-.966-1.237-.618 0-.966.457-.966 1.237 0 .788.348 1.24.966 1.24.615 0 .966-.456.966-1.24z"/>
            <path d="M46.259 11.358h-.738l-.744-2.653h-.057l-.741 2.653h-.73l-.994-3.602h.722l.645 2.749h.053l.74-2.75h.683l.74 2.75h.057l.642-2.75h.71zM48.083 7.756h.684v.572h.053c.185-.421.617-.679 1.075-.642a1.172 1.172 0 0 1 1.247 1.34v2.332h-.71V9.205c0-.58-.252-.867-.778-.867a.826.826 0 0 0-.86.913v2.107h-.711V7.756zM52.275 6.35h.711v5.008h-.711z"/>
            <path fill-rule="nonzero" d="M53.974 9.555a1.707 1.707 0 1 1 3.398 0 1.707 1.707 0 1 1-3.398 0zm2.667 0c0-.78-.351-1.237-.967-1.237-.618 0-.965.457-.965 1.237 0 .788.347 1.24.965 1.24.616 0 .967-.456.967-1.24zM58.12 10.34c0-.649.484-1.023 1.34-1.076l.976-.056v-.311c0-.38-.251-.595-.737-.595-.397 0-.672.145-.75.4h-.69c.073-.619.655-1.016 1.473-1.016.903 0 1.412.45 1.412 1.21v2.462h-.684v-.506h-.056c-.233.37-.646.586-1.082.566a1.088 1.088 0 0 1-1.201-1.079zm2.316-.308V9.73l-.88.057c-.495.033-.72.202-.72.52 0 .323.28.512.668.512a.85.85 0 0 0 .932-.787zM62.079 9.555c0-1.138.585-1.859 1.495-1.859.46-.021.89.225 1.105.632h.053V6.35h.71v5.008h-.68v-.569h-.057a1.25 1.25 0 0 1-1.131.629c-.917 0-1.495-.722-1.495-1.863zm.734 0c0 .765.36 1.224.962 1.224.6 0 .97-.466.97-1.22 0-.751-.374-1.224-.97-1.224-.598 0-.962.463-.962 1.22zM68.384 9.555a1.707 1.707 0 1 1 3.398 0 1.707 1.707 0 1 1-3.398 0zm2.666 0c0-.78-.35-1.237-.966-1.237-.618 0-.966.457-.966 1.237 0 .788.348 1.24.966 1.24.616 0 .966-.456.966-1.24z"/>
            <path d="M72.736 7.756h.684v.572h.053c.185-.421.617-.679 1.075-.642a1.172 1.172 0 0 1 1.247 1.34v2.332h-.711V9.205c0-.58-.252-.867-.777-.867a.826.826 0 0 0-.86.913v2.107h-.711V7.756zM79.812 6.859v.913h.78v.6h-.78v1.851c0 .378.156.543.51.543.09 0 .18-.006.27-.016v.592a2.332 2.332 0 0 1-.386.036c-.79 0-1.106-.278-1.106-.973V8.371h-.571v-.599h.571V6.86h.712zM81.564 6.35h.704v1.985h.057a1.108 1.108 0 0 1 1.098-.646 1.187 1.187 0 0 1 1.24 1.343v2.326h-.711v-2.15c0-.576-.268-.867-.77-.867a.842.842 0 0 0-.907.913v2.104h-.711V6.35z"/>
            <path fill-rule="nonzero" d="M88.809 10.386c-.2.679-.857 1.118-1.56 1.042a1.636 1.636 0 0 1-1.665-1.86 1.661 1.661 0 0 1 1.66-1.882c1.003 0 1.608.685 1.608 1.816v.248h-2.544v.04a.952.952 0 0 0 .96 1.032.863.863 0 0 0 .857-.436h.684zm-2.5-1.161h1.819a.87.87 0 0 0-.887-.934.921.921 0 0 0-.933.934z"/>
        </g>
        <g fill="#FFF">
            <path fill-rule="nonzero" d="M39.642 21.112h-3.787l-.91 2.685h-1.603l3.587-9.935h1.666l3.587 9.935H40.55l-.908-2.685zm-3.395-1.24h3.002l-1.48-4.357h-.041l-1.48 4.358zM49.928 20.176c0 2.25-1.205 3.697-3.023 3.697a2.455 2.455 0 0 1-2.279-1.268h-.034v3.588h-1.487v-9.64h1.44v1.206h.027a2.57 2.57 0 0 1 2.306-1.28c1.838 0 3.05 1.452 3.05 3.697zm-1.528 0c0-1.467-.758-2.43-1.914-2.43-1.136 0-1.9.984-1.9 2.43 0 1.46.764 2.437 1.9 2.437 1.156 0 1.914-.958 1.914-2.437zM57.9 20.176c0 2.25-1.205 3.697-3.023 3.697a2.455 2.455 0 0 1-2.279-1.268h-.034v3.588h-1.487v-9.64h1.439v1.206h.027a2.57 2.57 0 0 1 2.307-1.28c1.838 0 3.05 1.452 3.05 3.697zm-1.529 0c0-1.467-.757-2.43-1.914-2.43-1.136 0-1.9.984-1.9 2.43 0 1.46.764 2.437 1.9 2.437 1.157 0 1.915-.958 1.915-2.437z"/>
            <path d="M63.168 21.029c.11.985 1.068 1.632 2.375 1.632 1.254 0 2.155-.647 2.155-1.535 0-.771-.544-1.233-1.831-1.55l-1.288-.31c-1.824-.44-2.67-1.293-2.67-2.678 0-1.714 1.493-2.891 3.614-2.891 2.1 0 3.538 1.177 3.587 2.891h-1.501c-.09-.991-.91-1.59-2.107-1.59-1.198 0-2.017.606-2.017 1.487 0 .702.523 1.116 1.804 1.432l1.094.269c2.038.482 2.885 1.3 2.885 2.754 0 1.858-1.48 3.022-3.835 3.022-2.203 0-3.69-1.136-3.787-2.933h1.522zM72.477 14.84v1.714h1.377v1.177h-1.377v3.993c0 .62.276.91.881.91.164-.003.327-.015.49-.035v1.17c-.273.051-.55.074-.827.07-1.466 0-2.038-.552-2.038-1.956V17.73H69.93v-1.177h1.053V14.84h1.494z"/>
            <path fill-rule="nonzero" d="M74.652 20.176c0-2.28 1.342-3.711 3.435-3.711 2.1 0 3.436 1.432 3.436 3.71 0 2.286-1.329 3.712-3.436 3.712-2.106 0-3.435-1.426-3.435-3.711zm5.356 0c0-1.563-.716-2.486-1.92-2.486-1.206 0-1.921.93-1.921 2.486 0 1.57.715 2.485 1.92 2.485s1.921-.916 1.921-2.485z"/>
            <path d="M82.749 16.554h1.418v1.233h.034a1.728 1.728 0 0 1 1.742-1.309c.172 0 .343.018.51.056v1.39a2.078 2.078 0 0 0-.668-.09 1.498 1.498 0 0 0-1.55 1.667v4.296H82.75v-7.243z"/>
            <path fill-rule="nonzero" d="M93.307 21.67c-.2 1.314-1.48 2.217-3.118 2.217-2.107 0-3.415-1.412-3.415-3.677 0-2.272 1.315-3.745 3.352-3.745 2.004 0 3.264 1.376 3.264 3.572v.51h-5.115v.09a1.886 1.886 0 0 0 1.948 2.051 1.639 1.639 0 0 0 1.673-1.018h1.411zm-5.025-2.162h3.62a1.742 1.742 0 0 0-1.776-1.838 1.834 1.834 0 0 0-1.844 1.838z"/>
        </g>
        <g fill="#FFF">
            <path d="M22.297 16.934c.02-1.508.826-2.9 2.137-3.69a4.618 4.618 0 0 0-3.619-1.919c-1.522-.156-2.998.893-3.774.893-.791 0-1.986-.877-3.272-.851a4.832 4.832 0 0 0-4.055 2.425c-1.754 2.976-.446 7.35 1.234 9.756.84 1.178 1.822 2.494 3.107 2.447 1.258-.05 1.728-.786 3.246-.786 1.504 0 1.944.786 3.256.757 1.35-.022 2.2-1.184 3.01-2.373a9.667 9.667 0 0 0 1.377-2.749c-1.603-.664-2.645-2.204-2.647-3.91zM19.82 9.743a4.275 4.275 0 0 0 1.01-3.103 4.525 4.525 0 0 0-2.907 1.475 4.07 4.07 0 0 0-1.037 2.988c1.139.012 2.22-.49 2.934-1.36z"/>
        </g>
    </g>
</svg>
