<svg xmlns="http://www.w3.org/2000/svg" xmlns:xlink="http://www.w3.org/1999/xlink" width="16px" height="16px" viewBox="0 0 16 16" version="1.1" style="&#10;    /* background-color: #000; */&#10;">
    <g id="main320_all_match-copy" stroke="none" stroke-width="1" fill="none" fill-rule="evenodd" transform="translate(-242.000000, -16.000000)">
        <g id="хедер" fill="#FFFFFF" fill-rule="nonzero">
            <g id="календарь" transform="translate(242.000000, 16.000000)">
                <path d="M14.2222222,1.77777778 L13.3333333,1.77777778 L13.3333333,4 L10.6666667,4 L10.6666667,1.77777778 L5.33333333,1.77777778 L5.33333333,4 L2.66666667,4 L2.66666667,1.77777778 L1.77777778,1.77777778 C0.799111111,1.77777778 0,2.57777778 0,3.55555556 L0,14.2222222 C0,15.2 0.799111111,16 1.77777778,16 L14.2222222,16 C15.2,16 16,15.2 16,14.2222222 L16,3.55555556 C16,2.57777778 15.2,1.77777778 14.2222222,1.77777778 Z M14,15 L2,15 L2,6 L14,6 L14,15 Z M4.88888889,0 L3.11111111,0 L3.11111111,3.11111111 L4.88888889,3.11111111 L4.88888889,0 Z M12.8888889,0 L11.1111111,0 L11.1111111,3.11111111 L12.8888889,3.11111111 L12.8888889,0 Z" id="Shape"/>
            </g>
        </g>
    </g>
</svg>