<svg width="52px" height="50px" viewBox="0 0 52 50" version="1.1" xmlns="http://www.w3.org/2000/svg" xmlns:xlink="http://www.w3.org/1999/xlink">
    <!-- Generator: Sketch 48.2 (47327) - http://www.bohemiancoding.com/sketch -->
    <title>002-trophy-with-a-star</title>
    <desc>Created with Sketch.</desc>
    <defs></defs>
    <g id="Artboard" stroke="none" stroke-width="1" fill="none" fill-rule="evenodd" transform="translate(-13.000000, -236.000000)">
        <g id="55" transform="translate(11.000000, 233.000000)" fill="#E8E9EA" fill-rule="nonzero">
            <g id="002-trophy-with-a-star-Clipped">
                <g id="002-trophy-with-a-star" transform="translate(2.000000, 3.000000)">
                    <g id="Shape">
                        <path d="M51.3587948,5.8369164 C51.2175353,5.62519001 50.9787731,5.47861021 50.6421281,5.47861021 L43.7909338,5.47861021 C43.5249186,3.68165038 43.1448969,2.3732899 42.987405,1.87926167 C43.1611835,1.68925081 43.3348534,1.50466884 43.5085776,1.32008686 C43.7855592,1.02692725 43.8017372,0.565472313 43.5085776,0.272312704 C43.4163409,0.180021716 43.3023344,0.120304017 43.1774159,0.0823018458 C43.0797503,0.033441911 42.9656895,0.000868621064 42.8354506,0.000868621064 L8.73659066,0.000868621064 C8.60086862,0.000868621064 8.48686211,0.0280130293 8.39457112,0.0823018458 C8.26970684,0.114875136 8.15570033,0.180021716 8.06340934,0.272312704 C7.77024973,0.565472313 7.78653637,1.02692725 8.06340934,1.32008686 C8.23713355,1.50466884 8.41085776,1.6946797 8.58458198,1.87926167 C8.42714441,2.3732899 8.05255157,3.6762215 7.78110749,5.47861021 L0.951574376,5.47861021 C0.647557003,5.47861021 0.424972856,5.5980456 0.278393051,5.7771987 C0.0992399566,5.94549403 -0.0147665581,6.17350706 0.00152008686,6.42323561 C0.348968512,11.0757872 2.14049946,15.4948969 5.08295331,19.110532 C8.17741585,22.9107492 12.4770901,25.6739957 17.2002172,26.9335505 C16.9775787,27.7478827 16.8799131,29.0345277 18.2045603,29.5720413 C19.1057546,29.9412052 20.0991857,30.3755157 20.7561346,31.1192725 C21.4564061,31.9118893 21.2013029,32.7913681 20.4846906,33.4753529 C20.2132465,33.7359392 20.1263301,33.9694354 20.2132465,34.3385451 L22.0156352,44.4850706 L20.2946797,44.4850706 C19.9634636,44.4850706 19.4477199,44.6153637 19.1546145,44.7782302 L15.9732356,46.5209012 C15.6801303,46.6837676 15.4412052,47.0855049 15.4412052,47.4166667 L15.4412052,49.3494028 C15.4412052,49.6859935 15.7126493,49.9574376 16.04924,49.9574376 L35.5389251,49.9574376 C35.8755157,49.9574376 36.1469598,49.6859935 36.1469598,49.3494028 L36.1414767,47.3950054 C36.1414767,47.036645 35.9406623,46.7055375 35.6257329,46.5318132 C34.8168838,46.086645 33.2425081,45.2288817 32.4226927,44.7782845 C32.1295874,44.615418 31.6192182,44.4851249 31.2826276,44.4851249 L29.5725299,44.4851249 C29.5725299,44.4851249 31.369544,34.3819761 31.3749186,34.3385993 C31.4237785,34.0671553 31.4400651,33.8228556 31.2500543,33.6057003 C31.0546145,33.3830619 30.8266015,33.209392 30.6637351,32.9596634 C30.4302932,32.5959283 30.3162866,32.1724756 30.4520087,31.7544517 C30.7343105,30.869544 31.7604235,30.3266558 32.5312704,29.9521173 C32.8081976,29.8163952 33.095874,29.6914767 33.3836048,29.5720955 C34.702823,29.0346363 34.6051031,27.747937 34.3879479,26.9336048 C39.1110206,25.6686754 43.4107492,22.9108035 46.5052117,19.1105863 C49.4476113,15.4949511 51.2391422,11.0758415 51.586645,6.4232899 C51.5921824,6.20608035 51.4999457,5.99978284 51.3587948,5.8369164 Z M11.0059175,21.6783931 C10.0558632,21.0486428 9.47497286,20.5980456 8.6334962,19.8434311 C8.12318132,19.3819761 7.62915309,18.9042345 7.15684039,18.3993485 C6.91254072,18.1387622 6.67366992,17.872747 6.44565689,17.6013029 C6.33707926,17.4764387 6.23393051,17.3515744 6.13078176,17.2212812 C6.07649294,17.1561346 6.02763301,17.0909881 5.97877307,17.0312704 C5.97334419,17.0204126 5.90819761,16.9389794 5.88648208,16.911835 C5.06672096,15.8369164 4.33925081,14.6914224 3.73121607,13.4862106 C3.56834962,13.1659066 3.41634093,12.8456026 3.26976113,12.5198697 C3.23718784,12.4438654 3.20461455,12.367861 3.17204126,12.2918567 C3.16661238,12.2809989 3.11775244,12.1561346 3.10689468,12.139848 C3.05260586,12.0095548 2.99831705,11.8792617 2.94945711,11.7435396 C2.69972856,11.0975027 2.47714441,10.4460369 2.29256243,9.78371336 C2.10798046,9.11596091 1.94511401,8.43735071 1.82567861,7.75331162 C1.7985342,7.60130293 1.77681868,7.44929425 1.74967427,7.29728556 L7.29799131,7.29728556 C7.03740499,11.9824104 7.96031488,18.3830619 13.5574919,23.1333333 C12.6725299,22.7044517 11.8202497,22.2212812 11.0059175,21.6783931 Z M34.2306732,10.581759 L29.2632465,14.1919653 L31.163355,20.0334419 C31.2990771,20.4460369 31.1198697,20.5708469 30.7724756,20.3157438 L25.8050489,16.7055375 L20.832139,20.3211726 C20.4847448,20.5763301 20.3055917,20.4460369 20.4413138,20.0388708 L22.3414224,14.1973941 L17.3739957,10.5871878 C17.0265472,10.3320304 17.0916938,10.1257329 17.5260043,10.1257329 L23.6714984,10.1257329 L25.5716069,4.28425624 C25.707329,3.87166124 25.9190554,3.87166124 26.0547774,4.28425624 L27.954886,10.1257329 L34.10038,10.1257329 C34.512975,10.120304 34.5835505,10.3266015 34.2306732,10.581759 Z M49.2741042,7.75331162 C49.1546145,8.43735071 48.9972313,9.11596091 48.8072204,9.78371336 C48.6226384,10.4460369 48.4000543,11.1029316 48.1502172,11.7435396 C48.1014658,11.8738328 48.047177,12.0095548 47.9928882,12.139848 C47.9873507,12.1561346 47.9330619,12.2809989 47.9276873,12.2918567 C47.895114,12.367861 47.862595,12.4438654 47.8300217,12.5198697 C47.6833876,12.8456026 47.5314332,13.1659066 47.3685668,13.4862106 C46.7604777,14.6914224 46.0329533,15.8369164 45.2132465,16.911835 C45.1915309,16.9389794 45.1263844,17.0258415 45.1210098,17.0312704 C45.0721498,17.0964169 45.017861,17.1615635 44.9689468,17.2212812 C44.865798,17.3515744 44.7627036,17.4764387 44.654126,17.6013029 C44.4260586,17.872747 44.1871336,18.1387622 43.9428339,18.3993485 C43.4759501,18.9042345 42.9819761,19.3819761 42.4662324,19.8434311 C41.6247557,20.5979913 41.0383822,21.0432139 40.0938654,21.6783931 C39.2795331,22.2212812 38.4271444,22.7044517 37.5477199,23.1387622 C43.139468,18.3830076 44.0623779,11.9824104 43.7963626,7.29728556 L49.3446254,7.29728556 C49.3229642,7.44929425 49.2958198,7.60130293 49.2741042,7.75331162 Z"></path>
                    </g>
                </g>
            </g>
        </g>
    </g>
</svg>
