<?xml version="1.0" encoding="UTF-8"?>
<svg width="55px" height="55px" viewBox="0 0 55 55" version="1.1" xmlns="http://www.w3.org/2000/svg" xmlns:xlink="http://www.w3.org/1999/xlink">
    <!-- Generator: Sketch 48.2 (47327) - http://www.bohemiancoding.com/sketch -->
    <title>55</title>
    <desc>Created with Sketch.</desc>
    <defs>
        <rect id="path-1" x="0" y="0" width="55" height="55"></rect>
    </defs>
    <g id="Artboard" stroke="none" stroke-width="1" fill="none" fill-rule="evenodd" transform="translate(-11.000000, -355.000000)">
        <g id="55" transform="translate(11.000000, 355.000000)">
            <g id="Rectangle-Copy-4" fill="#FFFFFF" fill-rule="nonzero">
                <rect id="path-1" x="0" y="0" width="55" height="55"></rect>
            </g>
            <g id="Fill-1-Clipped">
                <mask id="mask-2" fill="white">
                    <use xlink:href="#path-1"></use>
                </mask>
                <g id="path-1"></g>
                <path d="M44.407652,43.4155769 L35.460069,38.9160577 C34.6184531,38.4884856 34.0928821,37.636875 34.0928821,36.6851442 L34.0928821,33.5013221 C34.3082609,33.2339423 34.5318334,32.9347596 34.7647702,32.603774 C35.9259426,30.9559135 36.8541783,29.1207692 37.5319191,27.1372115 C38.8522845,26.530601 39.712629,25.213726 39.712629,23.733125 L39.712629,19.9591827 C39.712629,19.0533894 39.3743439,18.1746875 38.7750291,17.4891587 L38.7750291,12.473726 C38.8253622,11.9578125 39.0360588,8.87057692 36.8178917,6.32634615 C34.8935292,4.1178125 31.7705372,3 27.5355352,3 C23.3017038,3 20.1833938,4.1178125 18.2590314,6.32634615 C16.0408643,8.87057692 16.2468787,11.9578125 16.301894,12.473726 L16.301894,17.4891587 C15.7025792,18.1746875 15.364294,19.0533894 15.364294,19.9591827 L15.364294,23.733125 C15.364294,24.8780288 15.8805007,25.9451923 16.7677676,26.6589904 C17.62343,30.0772115 19.4202039,32.6544231 20.046441,33.4777644 L20.046441,36.5968029 C20.046441,37.5084856 19.5524745,38.3459615 18.7565095,38.7829567 L10.4035593,43.3696394 C7.68674346,44.8608413 6,47.7183894 6,50.8327163 L6,53.8834375 C6,58.3558654 20.0874098,59.5384615 27.5355352,59.5384615 C34.9895132,59.5384615 49.0769231,58.3558654 49.0769231,53.8834375 L49.0769231,51.0176442 C49.0769231,47.7784615 47.2848313,44.8655529 44.407652,43.4155769 Z" id="Fill-1" fill="#E8E9EA" fill-rule="nonzero" mask="url(#mask-2)"></path>
            </g>
        </g>
    </g>
</svg>