<?xml version="1.0" encoding="UTF-8"?>
<svg width="50px" height="50px" viewBox="0 0 45 50" version="1.1" xmlns="http://www.w3.org/2000/svg" xmlns:xlink="http://www.w3.org/1999/xlink">
    <!-- Generator: Sketch 48.2 (47327) - http://www.bohemiancoding.com/sketch -->
    <title>003-american-football-emblem</title>
    <desc>Created with Sketch.</desc>
    <defs></defs>
    <g id="Artboard" stroke="none" stroke-width="1" fill="none" fill-rule="evenodd" transform="translate(-16.000000, -111.000000)">
        <g id="55" transform="translate(11.000000, 108.000000)" fill="#E8E9EA" fill-rule="nonzero">
            <g id="003-american-football-emblem-Clipped">
                <g id="003-american-football-emblem" transform="translate(5.000000, 3.000000)">
                    <g id="Shape">
                        <path d="M44.9913606,5.11639259 C44.986482,4.81833772 44.8176821,4.54717258 44.5518522,4.41013214 C44.2024354,4.23011132 35.8416931,0.00215981788 22.5047702,0 C22.5028188,0.000107990894 22.5017346,0 22.5,0 C22.4982654,0 22.4969644,0.000215981788 22.4952298,0 C9.1583069,0.00215981788 0.797564594,4.23011132 0.448147816,4.41013214 C0.182317863,4.54717258 0.0135180117,4.81833772 0.00863940327,5.11639259 C-0.142272218,14.361709 1.68818167,23.6608049 5.16283501,31.3006207 C9.04056982,39.8268258 14.8816735,46.2468845 22.0582149,49.8727867 C22.1887448,49.9555078 22.3409574,50 22.4963139,50 C22.498699,50 22.501301,50 22.5036861,50 C22.5470515,50 22.5900916,49.9956804 22.6325897,49.9888769 C22.6466835,49.9866091 22.6602352,49.9828294 22.6741121,49.9799137 C22.7015407,49.9740822 22.7286441,49.9674947 22.7552054,49.9588555 C22.7711422,49.9536719 22.7865369,49.9477324 22.8020401,49.9415769 C22.8262163,49.9320737 22.849742,49.9215986 22.8729425,49.9098276 C22.8874699,49.9024842 22.9016721,49.8950329 22.9156574,49.8868255 C22.9241137,49.881858 22.9333288,49.8780783 22.9416767,49.8727867 C30.1182181,46.2468845 35.9594302,39.8268258 39.837165,31.3006207 C43.3118183,23.6608049 45.1422722,14.361709 44.9913606,5.11639259 Z M38.3558026,30.6321571 C34.6857881,38.7013447 29.2089539,44.793651 22.5,48.2775452 C15.7910461,44.793543 10.3141034,38.7012367 6.64419735,30.6321571 C3.32934554,23.3436357 1.55407414,14.4881664 1.62844582,5.64360413 C3.48968914,4.79641557 11.2221751,1.62072734 22.5,1.61986341 C33.7538655,1.62072734 41.5070585,4.79803543 43.3715542,5.64425208 C43.4459259,14.4888143 41.6706545,23.3436357 38.3558026,30.6321571 Z"></path>
                        <path d="M41.4776823,6.22070072 C38.3495574,5.01820988 31.7892476,3.00065388 23.0003194,3 C14.2108495,3.00065388 7.65064798,5.01842784 4.52241476,6.22124562 C4.20178142,6.34450257 3.99271981,6.6572766 4.00019404,7.00263581 C4.16376037,14.5422337 5.7218651,22.208358 8.3872381,28.5889484 C11.6709135,36.4493849 16.4492169,42.2695975 22.5893454,45.887968 C22.7160822,45.9627287 22.8579841,46 22.9999944,46 C23.1420046,46 23.2837982,45.9626197 23.4106434,45.887968 C29.5507719,42.2695975 34.3290753,36.4492759 37.6127507,28.5886214 C40.278232,22.2079221 41.8362284,14.5415799 41.9997947,7.0020909 C42.0074856,6.6567317 41.798424,6.34395766 41.4776823,6.22070072 Z M7.18377983,19.4559465 L9.19337098,19.4559465 L9.19337098,26.2005317 C8.39774533,24.0610265 7.72430699,21.7959758 7.18377983,19.4559465 Z M13.526254,19.4559465 L13.526254,34.8700395 C12.5435561,33.3780964 11.640475,31.7681275 10.8182021,30.0434021 L10.8182021,19.4559465 L13.526254,19.4559465 Z M15.1510851,37.136071 L15.1510851,19.4559465 L17.859137,19.4559465 L17.859137,40.187634 C16.9070943,39.2469143 16.0037965,38.2297993 15.1510851,37.136071 Z M22.19202,19.4559465 L22.19202,43.713916 C21.2538425,43.0934901 20.3504364,42.4160673 19.4839681,41.679795 L19.4839681,19.4559465 L22.19202,19.4559465 Z M26.524903,19.4559465 L26.524903,41.6723843 C25.6584348,42.4093105 24.7550287,43.0871692 23.8168512,43.7081401 L23.8168512,19.4559465 L26.524903,19.4559465 Z M28.1497342,40.1790245 L28.1497342,19.4559465 L30.8577861,19.4559465 L30.8577861,37.125064 C30.0050747,38.2195552 29.1018852,39.237542 28.1497342,40.1790245 Z M35.1906691,19.4559465 L35.1906691,30.0254203 C34.3685045,31.7518894 33.4653151,33.3633841 32.4826172,34.8568528 L32.4826172,19.4559465 L35.1906691,19.4559465 Z M36.8155002,26.176556 L36.8155002,19.4559465 L38.8163173,19.4559465 C38.2778482,21.7872574 37.6073346,24.0440256 36.8155002,26.176556 Z M39.1690139,17.821239 L6.83108315,17.821239 C6.15558669,14.4741209 5.74840401,11.0017842 5.64008194,7.54655748 C8.84186584,6.3739273 14.9481979,4.63536138 22.9998861,4.6347075 C31.0520075,4.63536138 37.1584479,6.37360036 40.3602318,7.54601258 C40.2518014,11.0014573 39.8445104,14.473903 39.1690139,17.821239 Z"></path>
                        <path d="M23.7874079,14.2125298 C23.5039517,13.9291567 23.0443636,13.9291567 22.7610042,14.2125298 L22.5,14.4735467 L22.2389958,14.2125298 C21.9555396,13.9291567 21.4959515,13.9291567 21.2125921,14.2125298 C20.929136,14.4960965 20.929136,14.95561 21.2125921,15.2390799 L21.4734996,15.5 L21.2125921,15.7609201 C20.929136,16.0444867 20.929136,16.5040003 21.2125921,16.7874702 C21.3542718,16.9291567 21.5400813,17 21.725794,17 C21.9115066,17 22.0973161,16.9291567 22.2389958,16.7874702 L22.5,16.5264533 L22.7610042,16.7874702 C22.9026839,16.9291567 23.0884934,17 23.274206,17 C23.4599187,17 23.6457282,16.9291567 23.7874079,16.7874702 C24.0708641,16.5039035 24.0708641,16.04439 23.7874079,15.7609201 L23.5265004,15.5 L23.7874079,15.2390799 C24.0708641,14.95561 24.0708641,14.4960965 23.7874079,14.2125298 Z"></path>
                        <path d="M22.2389958,7.21252984 C21.9555396,6.92915672 21.4959515,6.92915672 21.2125921,7.21252984 C20.929136,7.49609652 20.929136,7.95561004 21.2125921,8.23907994 L21.4734996,8.5 L21.2125921,8.76092006 C20.929136,9.04448674 20.929136,9.50400026 21.2125921,9.78747016 C21.3542718,9.92915672 21.5400813,10 21.725794,10 C21.9115066,10 22.0973161,9.92915672 22.2389958,9.78747016 L22.5,9.52645332 L22.7610042,9.78747016 C22.9026839,9.92915672 23.0884934,10 23.274206,10 C23.4599187,10 23.6457282,9.92915672 23.7874079,9.78747016 C24.0708641,9.50390348 24.0708641,9.04438996 23.7874079,8.76092006 L23.5265004,8.5 L23.7874079,8.23907994 C24.0708641,7.95551326 24.0708641,7.49599974 23.7874079,7.21252984 C23.5039517,6.92915672 23.0443636,6.92915672 22.7610042,7.21252984 L22.5,7.47354668 L22.2389958,7.21252984 Z"></path>
                        <path d="M29.2125921,16.7874702 C29.3542718,16.9291567 29.5400813,17 29.725794,17 C29.9115066,17 30.0973161,16.9291567 30.2389958,16.7874702 L30.5,16.5264533 L30.7610042,16.7874702 C30.9026839,16.9291567 31.0884934,17 31.274206,17 C31.4599187,17 31.6457282,16.9291567 31.7874079,16.7874702 C32.0708641,16.5039035 32.0708641,16.04439 31.7874079,15.7609201 L31.5265004,15.5 L31.7874079,15.2390799 C32.0708641,14.9555133 32.0708641,14.4959997 31.7874079,14.2125298 C31.5039517,13.9291567 31.0443636,13.9291567 30.7610042,14.2125298 L30.5,14.4735467 L30.2389958,14.2125298 C29.9555396,13.9291567 29.4959515,13.9291567 29.2125921,14.2125298 C28.929136,14.4960965 28.929136,14.95561 29.2125921,15.2390799 L29.4734996,15.5 L29.2125921,15.7609201 C28.929136,16.04439 28.929136,16.5039035 29.2125921,16.7874702 Z"></path>
                        <path d="M29.2125921,9.78747016 C29.3542718,9.92915672 29.5400813,10 29.725794,10 C29.9115066,10 30.0973161,9.92915672 30.2389958,9.78747016 L30.5,9.52645332 L30.7610042,9.78747016 C30.9026839,9.92915672 31.0884934,10 31.274206,10 C31.4599187,10 31.6457282,9.92915672 31.7874079,9.78747016 C32.0708641,9.50390348 32.0708641,9.04438996 31.7874079,8.76092006 L31.5265004,8.5 L31.7874079,8.23907994 C32.0708641,7.95551326 32.0708641,7.49599974 31.7874079,7.21252984 C31.5039517,6.92915672 31.0443636,6.92915672 30.7610042,7.21252984 L30.5,7.47354668 L30.2389958,7.21252984 C29.9555396,6.92915672 29.4959515,6.92915672 29.2125921,7.21252984 C28.929136,7.49609652 28.929136,7.95561004 29.2125921,8.23907994 L29.4734996,8.5 L29.2125921,8.76092006 C28.929136,9.04438996 28.929136,9.50390348 29.2125921,9.78747016 Z"></path>
                        <path d="M14.7874079,14.2125298 C14.5039517,13.9291567 14.0443636,13.9291567 13.7610042,14.2125298 L13.5,14.4735467 L13.2389958,14.2125298 C12.9555396,13.9291567 12.4959515,13.9291567 12.2125921,14.2125298 C11.929136,14.4960965 11.929136,14.95561 12.2125921,15.2390799 L12.4734996,15.5 L12.2125921,15.7609201 C11.929136,16.0444867 11.929136,16.5040003 12.2125921,16.7874702 C12.3542718,16.9291567 12.5400813,17 12.725794,17 C12.9115066,17 13.0973161,16.9291567 13.2389958,16.7874702 L13.5,16.5264533 L13.7610042,16.7874702 C13.9026839,16.9291567 14.0884934,17 14.274206,17 C14.4599187,17 14.6457282,16.9291567 14.7874079,16.7874702 C15.0708641,16.5039035 15.0708641,16.04439 14.7874079,15.7609201 L14.5265004,15.5 L14.7874079,15.2390799 C15.0708641,14.95561 15.0708641,14.4960965 14.7874079,14.2125298 Z"></path>
                        <path d="M14.7874079,7.21252984 C14.5039517,6.92915672 14.0443636,6.92915672 13.7610042,7.21252984 L13.5,7.47354668 L13.2389958,7.21252984 C12.9555396,6.92915672 12.4959515,6.92915672 12.2125921,7.21252984 C11.929136,7.49609652 11.929136,7.95561004 12.2125921,8.23907994 L12.4734996,8.5 L12.2125921,8.76092006 C11.929136,9.04448674 11.929136,9.50400026 12.2125921,9.78747016 C12.3542718,9.92915672 12.5400813,10 12.725794,10 C12.9115066,10 13.0973161,9.92915672 13.2389958,9.78747016 L13.5,9.52645332 L13.7610042,9.78747016 C13.9026839,9.92915672 14.0884934,10 14.274206,10 C14.4599187,10 14.6457282,9.92915672 14.7874079,9.78747016 C15.0708641,9.50390348 15.0708641,9.04438996 14.7874079,8.76092006 L14.5265004,8.5 L14.7874079,8.23907994 C15.0708641,7.95561004 15.0708641,7.49609652 14.7874079,7.21252984 Z"></path>
                        <path d="M25.2125921,12.7874702 C25.3542718,12.9291567 25.5400813,13 25.725794,13 C25.9115066,13 26.0973161,12.9291567 26.2389958,12.7874702 L26.5,12.5264533 L26.7610042,12.7874702 C26.9026839,12.9291567 27.0884934,13 27.274206,13 C27.4599187,13 27.6457282,12.9291567 27.7874079,12.7874702 C28.0708641,12.5039035 28.0708641,12.04439 27.7874079,11.7609201 L27.5265004,11.5 L27.7874079,11.2390799 C28.0708641,10.9555133 28.0708641,10.4959997 27.7874079,10.2125298 C27.5039517,9.92915672 27.0443636,9.92915672 26.7610042,10.2125298 L26.5,10.4735467 L26.2389958,10.2125298 C25.9555396,9.92915672 25.4959515,9.92915672 25.2125921,10.2125298 C24.929136,10.4960965 24.929136,10.95561 25.2125921,11.2390799 L25.4734996,11.5 L25.2125921,11.7609201 C24.929136,12.04439 24.929136,12.5039035 25.2125921,12.7874702 Z"></path>
                        <path d="M34.2125921,12.7874702 C34.3542718,12.9291567 34.5400813,13 34.725794,13 C34.9115066,13 35.0973161,12.9291567 35.2389958,12.7874702 L35.5,12.5264533 L35.7610042,12.7874702 C35.9026839,12.9291567 36.0884934,13 36.274206,13 C36.4599187,13 36.6457282,12.9291567 36.7874079,12.7874702 C37.0708641,12.5039035 37.0708641,12.04439 36.7874079,11.7609201 L36.5265004,11.5 L36.7874079,11.2390799 C37.0708641,10.9555133 37.0708641,10.4959997 36.7874079,10.2125298 C36.5039517,9.92915672 36.0443636,9.92915672 35.7610042,10.2125298 L35.5,10.4735467 L35.2389958,10.2125298 C34.9555396,9.92915672 34.4959515,9.92915672 34.2125921,10.2125298 C33.929136,10.4960965 33.929136,10.95561 34.2125921,11.2390799 L34.4734996,11.5 L34.2125921,11.7609201 C33.929136,12.04439 33.929136,12.5039035 34.2125921,12.7874702 Z"></path>
                        <path d="M10.7874079,10.2125298 C10.5039517,9.92915672 10.0443636,9.92915672 9.76100422,10.2125298 L9.50000001,10.4735467 L9.2389958,10.2125298 C8.95553962,9.92915672 8.49595155,9.92915672 8.21259214,10.2125298 C7.92913595,10.4960965 7.92913595,10.95561 8.21259214,11.2390799 L8.47349957,11.5 L8.21259214,11.7609201 C7.92913595,12.0444867 7.92913595,12.5040003 8.21259214,12.7874702 C8.35427184,12.9291567 8.54008129,13 8.72579397,13 C8.91150665,13 9.0973161,12.9291567 9.2389958,12.7874702 L9.50000001,12.5264533 L9.76100422,12.7874702 C9.90268392,12.9291567 10.0884934,13 10.274206,13 C10.4599187,13 10.6457282,12.9291567 10.7874079,12.7874702 C11.070864,12.5039035 11.070864,12.04439 10.7874079,11.7609201 L10.5265004,11.5 L10.7874079,11.2390799 C11.070864,10.95561 11.070864,10.4960965 10.7874079,10.2125298 Z"></path>
                        <path d="M19.7874079,10.2125298 C19.5039517,9.92915672 19.0443636,9.92915672 18.7610042,10.2125298 L18.5,10.4735467 L18.2389958,10.2125298 C17.9555396,9.92915672 17.4959515,9.92915672 17.2125921,10.2125298 C16.929136,10.4960965 16.929136,10.95561 17.2125921,11.2390799 L17.4734996,11.5 L17.2125921,11.7609201 C16.929136,12.0444867 16.929136,12.5040003 17.2125921,12.7874702 C17.3542718,12.9291567 17.5400813,13 17.725794,13 C17.9115066,13 18.0973161,12.9291567 18.2389958,12.7874702 L18.5,12.5264533 L18.7610042,12.7874702 C18.9026839,12.9291567 19.0884934,13 19.274206,13 C19.4599187,13 19.6457282,12.9291567 19.7874079,12.7874702 C20.0708641,12.5039035 20.0708641,12.04439 19.7874079,11.7609201 L19.5265004,11.5 L19.7874079,11.2390799 C20.0708641,10.95561 20.0708641,10.4960965 19.7874079,10.2125298 Z"></path>
                    </g>
                </g>
            </g>
        </g>
    </g>
</svg>