<svg xmlns="http://www.w3.org/2000/svg" xmlns:xlink="http://www.w3.org/1999/xlink" width="60" height="60" viewBox="0 0 60 60">
    <defs>
        <circle id="a" cx="29" cy="29" r="29"/>
    </defs>
    <g fill="none" fill-rule="evenodd">
        <path d="M0 0h60v60H0z"/>
        <g transform="translate(1 1)">
            <path fill="#D4D4D4" d="M20.369 45.472l-8.653 4.72a7.776 7.776 0 0 0-1.389.988A28.866 28.866 0 0 0 29 58a28.885 28.885 0 0 0 18.564-6.724 7.677 7.677 0 0 0-1.525-1.022l-9.266-4.632a3.533 3.533 0 0 1-1.953-3.16v-3.636c.26-.296.558-.677.876-1.127a21.32 21.32 0 0 0 2.88-5.804c1.189-.367 2.064-1.465 2.064-2.77v-3.88c0-.853-.38-1.616-.97-2.15v-5.61s1.153-8.73-10.669-8.73c-11.822 0-10.67 8.73-10.67 8.73v5.61a2.893 2.893 0 0 0-.97 2.15v3.88a2.91 2.91 0 0 0 1.342 2.442c.97 4.221 3.509 7.26 3.509 7.26v3.545a3.537 3.537 0 0 1-1.843 3.1z"/>
            <path fill="#F4F4F4" d="M29.496.004C13.482-.269.278 12.491.004 28.504c-.155 9.08 3.892 17.24 10.335 22.667a7.706 7.706 0 0 1 1.376-.978l8.653-4.72a3.535 3.535 0 0 0 1.842-3.102v-3.546s-2.54-3.038-3.509-7.259a2.91 2.91 0 0 1-1.341-2.441v-3.88c0-.854.38-1.617.97-2.151v-5.61s-1.153-8.73 10.669-8.73c11.822 0 10.67 8.73 10.67 8.73v5.61c.59.534.97 1.297.97 2.15v3.88c0 1.305-.876 2.403-2.065 2.77a21.32 21.32 0 0 1-2.88 5.804c-.318.45-.616.83-.876 1.127v3.635c0 1.339.756 2.563 1.953 3.16l9.266 4.633c.556.278 1.058.63 1.52 1.02 6.25-5.211 10.287-13.003 10.436-21.777C58.27 13.482 45.51.278 29.496.004z"/>
            <use stroke="#D4D4D4" stroke-width=".547" xlink:href="#a"/>
        </g>
    </g>
</svg>
